M48
INCH
T01C0.0150
T02C0.0360
T03C0.0480
T04C0.0400
T05C0.0300
%
T01
X+006396Y-005938
X+008187Y-008074
X+008756Y-005479
X+008674Y-006399
X+002706Y-003027
X+003232Y-003136
X+007287Y-006463
X+005759Y-009071
X+008409Y-000806
X+003909Y-003174
X+006172Y-008226
X+009507Y-007888
X+007393Y-003412
X+007270Y-005449
X+008589Y-007513
X+006882Y-008930
X+001732Y-000984
X+003420Y-007710
X+004805Y-006156
X+005354Y-005395
X+004426Y-006245
X+003183Y-001566
X+005840Y-006380
X+001469Y-010155
X+003931Y-003865
X+010105Y-008467
X+006571Y-009258
X+001480Y-005227
X+002682Y-004342
T02
X+009959Y-006549
X+009959Y-005549
X+003841Y-000794
X+004841Y-000794
X+005841Y-000794
X+006841Y-000794
X+009987Y-003767
X+009987Y-002767
X+009987Y-001767
X+009987Y-000767
T03
X+001312Y-006806
X+003712Y-009236
X+000582Y-010126
T04
X+004682Y-010091
X+005863Y-010091
T05
X+009527Y-009212
X+007874Y-009212
X+001359Y-000457
X+002194Y-000461
M30
